# xmcd
# 
# Track frame offsets:
#     225
#     12328
#     24271
#     34859
#     46969
#     57990
#     67160
#     77094
#     88426
#     101129
# 
# Disc length: 1531
# 
# Revision: 1
# Processed by: cddbd v1.5.2PL0 Copyright (c) Steve Scherf et al.
# Submitted via: fre:ac v1.0.31
# 
DISCID=8505f80a
DTITLE=Skeeter Davis - Best of The Best
DYEAR=0
DGENRE=Country
TTITLE0=End of the World
TTITLE1=I'm Falling Too
TTITLE2=My Last Date
TTITLE3=What Does It Take
TTITLE4=Gonna Get Along Without You Now
TTITLE5=Am I That Easy To Forget
TTITLE6=I Can't Stay Mad At You
TTITLE7=He Says The Same Things To Me
TTITLE8=Bus Fare To Kentucky
TTITLE9=I Forgot More Than You'll Ever Know
EXTD=
EXTT0=
EXTT1=
EXTT2=
EXTT3=
EXTT4=
EXTT5=
EXTT6=
EXTT7=
EXTT8=
EXTT9=
PLAYORDER=
